<?xml version="1.0" encoding="UTF-8" standalone="no"?><svg xmlns="http://www.w3.org/2000/svg" xmlns:xlink="http://www.w3.org/1999/xlink" clip-rule="evenodd" stroke-miterlimit="4.00" viewBox="0 0 1024 768"><desc>SVG generated by Keynote</desc><defs></defs><g transform="matrix(1.00, 0.00, -0.00, -1.00, 0.0, 768.0)"><path d="M 0.0 768.0 L 1024.0 768.0 L 1024.0 0.0 L 0.0 0.0 Z M 0.0 768.0 " fill="#000000"></path><g><clipPath id="clip-1"><path d="M 107.0 635.0 L 917.0 635.0 L 917.0 40.0 L 107.0 40.0 Z M 106.7 634.6 "></path></clipPath><g clip-path="url(#clip-1)"><image xlink:href="../../99A09D83-89B9-4690-9BA9-4173D8394282/assets/323FE2E78F4918EA1A07FB11DA185B7E.png" width="737.00" height="540.00" transform="matrix(1.10, 0.00, -0.00, -1.10, 107.0, 635.0)"></image></g></g><text xml:space="preserve" font-family="Helvetica-Light" font-size="51.0" fill="#FEFFFF" transform="matrix(1.00, 0.00, -0.00, -1.00, 108.0, 674.0)">I</text><text xml:space="preserve" font-family="Helvetica-Light" font-size="51.0" fill="#FEFFFF" transform="matrix(1.00, 0.00, -0.00, -1.00, 122.2, 674.0)">m</text><text xml:space="preserve" font-family="Helvetica-Light" font-size="51.0" fill="#FEFFFF" transform="matrix(1.00, 0.00, -0.00, -1.00, 164.7, 674.0)">a</text><text xml:space="preserve" font-family="Helvetica-Light" font-size="51.0" fill="#FEFFFF" transform="matrix(1.00, 0.00, -0.00, -1.00, 193.0, 674.0)">g</text><text xml:space="preserve" font-family="Helvetica-Light" font-size="51.0" fill="#FEFFFF" transform="matrix(1.00, 0.00, -0.00, -1.00, 224.2, 674.0)">i</text><text xml:space="preserve" font-family="Helvetica-Light" font-size="51.0" fill="#FEFFFF" transform="matrix(1.00, 0.00, -0.00, -1.00, 235.5, 674.0)">n</text><text xml:space="preserve" font-family="Helvetica-Light" font-size="51.0" fill="#FEFFFF" transform="matrix(1.00, 0.00, -0.00, -1.00, 263.9, 674.0)">e</text><text xml:space="preserve" font-family="Helvetica-Light" font-size="51.0" fill="#FEFFFF" transform="matrix(1.00, 0.00, -0.00, -1.00, 292.2, 674.0)"> </text><text xml:space="preserve" font-family="Helvetica-Light" font-size="51.0" fill="#FEFFFF" transform="matrix(1.00, 0.00, -0.00, -1.00, 306.4, 674.0)">t</text><text xml:space="preserve" font-family="Helvetica-Light" font-size="51.0" fill="#FEFFFF" transform="matrix(1.00, 0.00, -0.00, -1.00, 320.6, 674.0)">h</text><text xml:space="preserve" font-family="Helvetica-Light" font-size="51.0" fill="#FEFFFF" transform="matrix(1.00, 0.00, -0.00, -1.00, 348.9, 674.0)">i</text><text xml:space="preserve" font-family="Helvetica-Light" font-size="51.0" fill="#FEFFFF" transform="matrix(1.00, 0.00, -0.00, -1.00, 360.2, 674.0)">s</text><text xml:space="preserve" font-family="Helvetica-Light" font-size="51.0" fill="#FEFFFF" transform="matrix(1.00, 0.00, -0.00, -1.00, 385.7, 674.0)"> </text><text xml:space="preserve" font-family="Helvetica-Light" font-size="51.0" fill="#FEFFFF" transform="matrix(1.00, 0.00, -0.00, -1.00, 399.9, 674.0)">s</text><text xml:space="preserve" font-family="Helvetica-Light" font-size="51.0" fill="#FEFFFF" transform="matrix(1.00, 0.00, -0.00, -1.00, 425.4, 674.0)">e</text><text xml:space="preserve" font-family="Helvetica-Light" font-size="51.0" fill="#FEFFFF" transform="matrix(1.00, 0.00, -0.00, -1.00, 453.8, 674.0)">r</text><text xml:space="preserve" font-family="Helvetica-Light" font-size="51.0" fill="#FEFFFF" transform="matrix(1.00, 0.00, -0.00, -1.00, 470.8, 674.0)">i</text><text xml:space="preserve" font-family="Helvetica-Light" font-size="51.0" fill="#FEFFFF" transform="matrix(1.00, 0.00, -0.00, -1.00, 482.1, 674.0)">e</text><text xml:space="preserve" font-family="Helvetica-Light" font-size="51.0" fill="#FEFFFF" transform="matrix(1.00, 0.00, -0.00, -1.00, 510.4, 674.0)">s</text><text xml:space="preserve" font-family="Helvetica-Light" font-size="51.0" fill="#FEFFFF" transform="matrix(1.00, 0.00, -0.00, -1.00, 535.9, 674.0)"> </text><text xml:space="preserve" font-family="Helvetica-Light" font-size="51.0" fill="#FEFFFF" transform="matrix(1.00, 0.00, -0.00, -1.00, 550.1, 674.0)">o</text><text xml:space="preserve" font-family="Helvetica-Light" font-size="51.0" fill="#FEFFFF" transform="matrix(1.00, 0.00, -0.00, -1.00, 578.5, 674.0)">f</text><text xml:space="preserve" font-family="Helvetica-Light" font-size="51.0" fill="#FEFFFF" transform="matrix(1.00, 0.00, -0.00, -1.00, 592.7, 674.0)"> </text><text xml:space="preserve" font-family="Helvetica-Light" font-size="51.0" fill="#FEFFFF" transform="matrix(1.00, 0.00, -0.00, -1.00, 606.8, 674.0)">s</text><text xml:space="preserve" font-family="Helvetica-Light" font-size="51.0" fill="#FEFFFF" transform="matrix(1.00, 0.00, -0.00, -1.00, 632.3, 674.0)">u</text><text xml:space="preserve" font-family="Helvetica-Light" font-size="51.0" fill="#FEFFFF" transform="matrix(1.00, 0.00, -0.00, -1.00, 660.7, 674.0)">b</text><text xml:space="preserve" font-family="Helvetica-Light" font-size="51.0" fill="#FEFFFF" transform="matrix(1.00, 0.00, -0.00, -1.00, 691.8, 674.0)">c</text><text xml:space="preserve" font-family="Helvetica-Light" font-size="51.0" fill="#FEFFFF" transform="matrix(1.00, 0.00, -0.00, -1.00, 720.2, 674.0)">l</text><text xml:space="preserve" font-family="Helvetica-Light" font-size="51.0" fill="#FEFFFF" transform="matrix(1.00, 0.00, -0.00, -1.00, 731.5, 674.0)">a</text><text xml:space="preserve" font-family="Helvetica-Light" font-size="51.0" fill="#FEFFFF" transform="matrix(1.00, 0.00, -0.00, -1.00, 759.9, 674.0)">s</text><text xml:space="preserve" font-family="Helvetica-Light" font-size="51.0" fill="#FEFFFF" transform="matrix(1.00, 0.00, -0.00, -1.00, 785.4, 674.0)">s</text><text xml:space="preserve" font-family="Helvetica-Light" font-size="51.0" fill="#FEFFFF" transform="matrix(1.00, 0.00, -0.00, -1.00, 810.9, 674.0)">e</text><text xml:space="preserve" font-family="Helvetica-Light" font-size="51.0" fill="#FEFFFF" transform="matrix(1.00, 0.00, -0.00, -1.00, 839.2, 674.0)">s</text><text xml:space="preserve" font-family="Helvetica-Light" font-size="51.0" fill="#FEFFFF" transform="matrix(1.00, 0.00, -0.00, -1.00, 864.7, 674.0)">…</text></g></svg>