<?xml version="1.0" encoding="UTF-8" standalone="no"?><svg xmlns="http://www.w3.org/2000/svg" xmlns:xlink="http://www.w3.org/1999/xlink" clip-rule="evenodd" stroke-miterlimit="4.00" viewBox="0 0 1024 768"><desc>SVG generated by Keynote</desc><defs></defs><g transform="matrix(1.00, 0.00, -0.00, -1.00, 0.0, 768.0)"><path d="M 0.0 768.0 L 1024.0 768.0 L 1024.0 0.0 L 0.0 0.0 Z M 0.0 768.0 " fill="#000000"></path><text xml:space="preserve" font-family="CourierNewPSMT" font-size="25.0" fill="#FEFFFF" transform="matrix(1.00, 0.00, -0.00, -1.00, 453.0, 563.0)">$</text><text xml:space="preserve" font-family="CourierNewPSMT" font-size="25.0" fill="#FEFFFF" transform="matrix(1.00, 0.00, -0.00, -1.00, 468.0, 563.0)">w</text><text xml:space="preserve" font-family="CourierNewPSMT" font-size="25.0" fill="#FEFFFF" transform="matrix(1.00, 0.00, -0.00, -1.00, 483.0, 563.0)">i</text><text xml:space="preserve" font-family="CourierNewPSMT" font-size="25.0" fill="#FEFFFF" transform="matrix(1.00, 0.00, -0.00, -1.00, 498.0, 563.0)">n</text><text xml:space="preserve" font-family="CourierNewPSMT" font-size="25.0" fill="#FEFFFF" transform="matrix(1.00, 0.00, -0.00, -1.00, 513.0, 563.0)">d</text><text xml:space="preserve" font-family="CourierNewPSMT" font-size="25.0" fill="#FEFFFF" transform="matrix(1.00, 0.00, -0.00, -1.00, 528.0, 563.0)">o</text><text xml:space="preserve" font-family="CourierNewPSMT" font-size="25.0" fill="#FEFFFF" transform="matrix(1.00, 0.00, -0.00, -1.00, 543.0, 563.0)">w</text><text xml:space="preserve" font-family="CourierNewPSMT" font-size="25.0" fill="#FEFFFF" transform="matrix(1.00, 0.00, -0.00, -1.00, 558.0, 563.0)"> </text><text xml:space="preserve" font-family="CourierNewPSMT" font-size="25.0" fill="#FEFFFF" transform="matrix(1.00, 0.00, -0.00, -1.00, 573.0, 563.0)">=</text><text xml:space="preserve" font-family="CourierNewPSMT" font-size="25.0" fill="#FEFFFF" transform="matrix(1.00, 0.00, -0.00, -1.00, 588.0, 563.0)"> </text><text xml:space="preserve" font-family="CourierNewPSMT" font-size="25.0" fill="#FEFFFF" transform="matrix(1.00, 0.00, -0.00, -1.00, 603.0, 563.0)">n</text><text xml:space="preserve" font-family="CourierNewPSMT" font-size="25.0" fill="#FEFFFF" transform="matrix(1.00, 0.00, -0.00, -1.00, 618.0, 563.0)">e</text><text xml:space="preserve" font-family="CourierNewPSMT" font-size="25.0" fill="#FEFFFF" transform="matrix(1.00, 0.00, -0.00, -1.00, 633.0, 563.0)">w</text><text xml:space="preserve" font-family="CourierNewPSMT" font-size="25.0" fill="#FEFFFF" transform="matrix(1.00, 0.00, -0.00, -1.00, 648.0, 563.0)"> </text><text xml:space="preserve" font-family="CourierNewPSMT" font-size="25.0" fill="#FEFFFF" transform="matrix(1.00, 0.00, -0.00, -1.00, 663.1, 563.0)">B</text><text xml:space="preserve" font-family="CourierNewPSMT" font-size="25.0" fill="#FEFFFF" transform="matrix(1.00, 0.00, -0.00, -1.00, 678.1, 563.0)">o</text><text xml:space="preserve" font-family="CourierNewPSMT" font-size="25.0" fill="#FEFFFF" transform="matrix(1.00, 0.00, -0.00, -1.00, 693.1, 563.0)">r</text><text xml:space="preserve" font-family="CourierNewPSMT" font-size="25.0" fill="#FEFFFF" transform="matrix(1.00, 0.00, -0.00, -1.00, 708.1, 563.0)">d</text><text xml:space="preserve" font-family="CourierNewPSMT" font-size="25.0" fill="#FEFFFF" transform="matrix(1.00, 0.00, -0.00, -1.00, 723.1, 563.0)">e</text><text xml:space="preserve" font-family="CourierNewPSMT" font-size="25.0" fill="#FEFFFF" transform="matrix(1.00, 0.00, -0.00, -1.00, 738.1, 563.0)">r</text><text xml:space="preserve" font-family="CourierNewPSMT" font-size="25.0" fill="#FEFFFF" transform="matrix(1.00, 0.00, -0.00, -1.00, 753.1, 563.0)">D</text><text xml:space="preserve" font-family="CourierNewPSMT" font-size="25.0" fill="#FEFFFF" transform="matrix(1.00, 0.00, -0.00, -1.00, 768.1, 563.0)">e</text><text xml:space="preserve" font-family="CourierNewPSMT" font-size="25.0" fill="#FEFFFF" transform="matrix(1.00, 0.00, -0.00, -1.00, 783.1, 563.0)">c</text><text xml:space="preserve" font-family="CourierNewPSMT" font-size="25.0" fill="#FEFFFF" transform="matrix(1.00, 0.00, -0.00, -1.00, 798.1, 563.0)">o</text><text xml:space="preserve" font-family="CourierNewPSMT" font-size="25.0" fill="#FEFFFF" transform="matrix(1.00, 0.00, -0.00, -1.00, 813.1, 563.0)">r</text><text xml:space="preserve" font-family="CourierNewPSMT" font-size="25.0" fill="#FEFFFF" transform="matrix(1.00, 0.00, -0.00, -1.00, 828.1, 563.0)">a</text><text xml:space="preserve" font-family="CourierNewPSMT" font-size="25.0" fill="#FEFFFF" transform="matrix(1.00, 0.00, -0.00, -1.00, 843.1, 563.0)">t</text><text xml:space="preserve" font-family="CourierNewPSMT" font-size="25.0" fill="#FEFFFF" transform="matrix(1.00, 0.00, -0.00, -1.00, 858.1, 563.0)">o</text><text xml:space="preserve" font-family="CourierNewPSMT" font-size="25.0" fill="#FEFFFF" transform="matrix(1.00, 0.00, -0.00, -1.00, 873.1, 563.0)">r</text><text xml:space="preserve" font-family="CourierNewPSMT" font-size="25.0" fill="#FEFFFF" transform="matrix(1.00, 0.00, -0.00, -1.00, 888.1, 563.0)">(</text><text xml:space="preserve" font-family="CourierNewPSMT" font-size="25.0" fill="#FEFFFF" transform="matrix(1.00, 0.00, -0.00, -1.00, 903.1, 563.0)"> </text><text xml:space="preserve" font-family="CourierNewPSMT" font-size="25.0" fill="#FEFFFF" transform="matrix(1.00, 0.00, -0.00, -1.00, 453.0, 534.0)"> </text><text xml:space="preserve" font-family="CourierNewPSMT" font-size="25.0" fill="#FEFFFF" transform="matrix(1.00, 0.00, -0.00, -1.00, 468.0, 534.0)"> </text><text xml:space="preserve" font-family="CourierNewPSMT" font-size="25.0" fill="#FEFFFF" transform="matrix(1.00, 0.00, -0.00, -1.00, 483.0, 534.0)">n</text><text xml:space="preserve" font-family="CourierNewPSMT" font-size="25.0" fill="#FEFFFF" transform="matrix(1.00, 0.00, -0.00, -1.00, 498.0, 534.0)">e</text><text xml:space="preserve" font-family="CourierNewPSMT" font-size="25.0" fill="#FEFFFF" transform="matrix(1.00, 0.00, -0.00, -1.00, 513.0, 534.0)">w</text><text xml:space="preserve" font-family="CourierNewPSMT" font-size="25.0" fill="#FEFFFF" transform="matrix(1.00, 0.00, -0.00, -1.00, 528.0, 534.0)"> </text><text xml:space="preserve" font-family="CourierNewPSMT" font-size="25.0" fill="#FEFFFF" transform="matrix(1.00, 0.00, -0.00, -1.00, 543.0, 534.0)">H</text><text xml:space="preserve" font-family="CourierNewPSMT" font-size="25.0" fill="#FEFFFF" transform="matrix(1.00, 0.00, -0.00, -1.00, 558.0, 534.0)">o</text><text xml:space="preserve" font-family="CourierNewPSMT" font-size="25.0" fill="#FEFFFF" transform="matrix(1.00, 0.00, -0.00, -1.00, 573.0, 534.0)">r</text><text xml:space="preserve" font-family="CourierNewPSMT" font-size="25.0" fill="#FEFFFF" transform="matrix(1.00, 0.00, -0.00, -1.00, 588.0, 534.0)">i</text><text xml:space="preserve" font-family="CourierNewPSMT" font-size="25.0" fill="#FEFFFF" transform="matrix(1.00, 0.00, -0.00, -1.00, 603.0, 534.0)">z</text><text xml:space="preserve" font-family="CourierNewPSMT" font-size="25.0" fill="#FEFFFF" transform="matrix(1.00, 0.00, -0.00, -1.00, 618.1, 534.0)">o</text><text xml:space="preserve" font-family="CourierNewPSMT" font-size="25.0" fill="#FEFFFF" transform="matrix(1.00, 0.00, -0.00, -1.00, 633.1, 534.0)">n</text><text xml:space="preserve" font-family="CourierNewPSMT" font-size="25.0" fill="#FEFFFF" transform="matrix(1.00, 0.00, -0.00, -1.00, 648.1, 534.0)">t</text><text xml:space="preserve" font-family="CourierNewPSMT" font-size="25.0" fill="#FEFFFF" transform="matrix(1.00, 0.00, -0.00, -1.00, 663.1, 534.0)">a</text><text xml:space="preserve" font-family="CourierNewPSMT" font-size="25.0" fill="#FEFFFF" transform="matrix(1.00, 0.00, -0.00, -1.00, 678.1, 534.0)">l</text><text xml:space="preserve" font-family="CourierNewPSMT" font-size="25.0" fill="#FEFFFF" transform="matrix(1.00, 0.00, -0.00, -1.00, 693.1, 534.0)">S</text><text xml:space="preserve" font-family="CourierNewPSMT" font-size="25.0" fill="#FEFFFF" transform="matrix(1.00, 0.00, -0.00, -1.00, 708.1, 534.0)">c</text><text xml:space="preserve" font-family="CourierNewPSMT" font-size="25.0" fill="#FEFFFF" transform="matrix(1.00, 0.00, -0.00, -1.00, 723.1, 534.0)">r</text><text xml:space="preserve" font-family="CourierNewPSMT" font-size="25.0" fill="#FEFFFF" transform="matrix(1.00, 0.00, -0.00, -1.00, 738.1, 534.0)">o</text><text xml:space="preserve" font-family="CourierNewPSMT" font-size="25.0" fill="#FEFFFF" transform="matrix(1.00, 0.00, -0.00, -1.00, 753.1, 534.0)">l</text><text xml:space="preserve" font-family="CourierNewPSMT" font-size="25.0" fill="#FEFFFF" transform="matrix(1.00, 0.00, -0.00, -1.00, 768.1, 534.0)">l</text><text xml:space="preserve" font-family="CourierNewPSMT" font-size="25.0" fill="#FEFFFF" transform="matrix(1.00, 0.00, -0.00, -1.00, 783.1, 534.0)">B</text><text xml:space="preserve" font-family="CourierNewPSMT" font-size="25.0" fill="#FEFFFF" transform="matrix(1.00, 0.00, -0.00, -1.00, 798.1, 534.0)">a</text><text xml:space="preserve" font-family="CourierNewPSMT" font-size="25.0" fill="#FEFFFF" transform="matrix(1.00, 0.00, -0.00, -1.00, 813.1, 534.0)">r</text><text xml:space="preserve" font-family="CourierNewPSMT" font-size="25.0" fill="#FEFFFF" transform="matrix(1.00, 0.00, -0.00, -1.00, 828.1, 534.0)">D</text><text xml:space="preserve" font-family="CourierNewPSMT" font-size="25.0" fill="#FEFFFF" transform="matrix(1.00, 0.00, -0.00, -1.00, 843.1, 534.0)">e</text><text xml:space="preserve" font-family="CourierNewPSMT" font-size="25.0" fill="#FEFFFF" transform="matrix(1.00, 0.00, -0.00, -1.00, 858.1, 534.0)">c</text><text xml:space="preserve" font-family="CourierNewPSMT" font-size="25.0" fill="#FEFFFF" transform="matrix(1.00, 0.00, -0.00, -1.00, 873.1, 534.0)">o</text><text xml:space="preserve" font-family="CourierNewPSMT" font-size="25.0" fill="#FEFFFF" transform="matrix(1.00, 0.00, -0.00, -1.00, 888.1, 534.0)">r</text><text xml:space="preserve" font-family="CourierNewPSMT" font-size="25.0" fill="#FEFFFF" transform="matrix(1.00, 0.00, -0.00, -1.00, 903.1, 534.0)">a</text><text xml:space="preserve" font-family="CourierNewPSMT" font-size="25.0" fill="#FEFFFF" transform="matrix(1.00, 0.00, -0.00, -1.00, 918.2, 534.0)">t</text><text xml:space="preserve" font-family="CourierNewPSMT" font-size="25.0" fill="#FEFFFF" transform="matrix(1.00, 0.00, -0.00, -1.00, 933.2, 534.0)">o</text><text xml:space="preserve" font-family="CourierNewPSMT" font-size="25.0" fill="#FEFFFF" transform="matrix(1.00, 0.00, -0.00, -1.00, 948.2, 534.0)">r</text><text xml:space="preserve" font-family="CourierNewPSMT" font-size="25.0" fill="#FEFFFF" transform="matrix(1.00, 0.00, -0.00, -1.00, 963.2, 534.0)">(</text><text xml:space="preserve" font-family="CourierNewPSMT" font-size="25.0" fill="#FEFFFF" transform="matrix(1.00, 0.00, -0.00, -1.00, 978.2, 534.0)"> </text><text xml:space="preserve" font-family="CourierNewPSMT" font-size="25.0" fill="#FEFFFF" transform="matrix(1.00, 0.00, -0.00, -1.00, 453.0, 505.0)"> </text><text xml:space="preserve" font-family="CourierNewPSMT" font-size="25.0" fill="#FEFFFF" transform="matrix(1.00, 0.00, -0.00, -1.00, 468.0, 505.0)"> </text><text xml:space="preserve" font-family="CourierNewPSMT" font-size="25.0" fill="#FEFFFF" transform="matrix(1.00, 0.00, -0.00, -1.00, 483.0, 505.0)"> </text><text xml:space="preserve" font-family="CourierNewPSMT" font-size="25.0" fill="#FEFFFF" transform="matrix(1.00, 0.00, -0.00, -1.00, 498.0, 505.0)"> </text><text xml:space="preserve" font-family="CourierNewPSMT" font-size="25.0" fill="#FEFFFF" transform="matrix(1.00, 0.00, -0.00, -1.00, 513.0, 505.0)">n</text><text xml:space="preserve" font-family="CourierNewPSMT" font-size="25.0" fill="#FEFFFF" transform="matrix(1.00, 0.00, -0.00, -1.00, 528.0, 505.0)">e</text><text xml:space="preserve" font-family="CourierNewPSMT" font-size="25.0" fill="#FEFFFF" transform="matrix(1.00, 0.00, -0.00, -1.00, 543.0, 505.0)">w</text><text xml:space="preserve" font-family="CourierNewPSMT" font-size="25.0" fill="#FEFFFF" transform="matrix(1.00, 0.00, -0.00, -1.00, 558.0, 505.0)"> </text><text xml:space="preserve" font-family="CourierNewPSMT" font-size="25.0" fill="#FEFFFF" transform="matrix(1.00, 0.00, -0.00, -1.00, 573.0, 505.0)">V</text><text xml:space="preserve" font-family="CourierNewPSMT" font-size="25.0" fill="#FEFFFF" transform="matrix(1.00, 0.00, -0.00, -1.00, 588.0, 505.0)">e</text><text xml:space="preserve" font-family="CourierNewPSMT" font-size="25.0" fill="#FEFFFF" transform="matrix(1.00, 0.00, -0.00, -1.00, 603.0, 505.0)">r</text><text xml:space="preserve" font-family="CourierNewPSMT" font-size="25.0" fill="#FEFFFF" transform="matrix(1.00, 0.00, -0.00, -1.00, 618.1, 505.0)">t</text><text xml:space="preserve" font-family="CourierNewPSMT" font-size="25.0" fill="#FEFFFF" transform="matrix(1.00, 0.00, -0.00, -1.00, 633.1, 505.0)">i</text><text xml:space="preserve" font-family="CourierNewPSMT" font-size="25.0" fill="#FEFFFF" transform="matrix(1.00, 0.00, -0.00, -1.00, 648.1, 505.0)">c</text><text xml:space="preserve" font-family="CourierNewPSMT" font-size="25.0" fill="#FEFFFF" transform="matrix(1.00, 0.00, -0.00, -1.00, 663.1, 505.0)">a</text><text xml:space="preserve" font-family="CourierNewPSMT" font-size="25.0" fill="#FEFFFF" transform="matrix(1.00, 0.00, -0.00, -1.00, 678.1, 505.0)">l</text><text xml:space="preserve" font-family="CourierNewPSMT" font-size="25.0" fill="#FEFFFF" transform="matrix(1.00, 0.00, -0.00, -1.00, 693.1, 505.0)">S</text><text xml:space="preserve" font-family="CourierNewPSMT" font-size="25.0" fill="#FEFFFF" transform="matrix(1.00, 0.00, -0.00, -1.00, 708.1, 505.0)">c</text><text xml:space="preserve" font-family="CourierNewPSMT" font-size="25.0" fill="#FEFFFF" transform="matrix(1.00, 0.00, -0.00, -1.00, 723.1, 505.0)">r</text><text xml:space="preserve" font-family="CourierNewPSMT" font-size="25.0" fill="#FEFFFF" transform="matrix(1.00, 0.00, -0.00, -1.00, 738.1, 505.0)">o</text><text xml:space="preserve" font-family="CourierNewPSMT" font-size="25.0" fill="#FEFFFF" transform="matrix(1.00, 0.00, -0.00, -1.00, 753.1, 505.0)">l</text><text xml:space="preserve" font-family="CourierNewPSMT" font-size="25.0" fill="#FEFFFF" transform="matrix(1.00, 0.00, -0.00, -1.00, 768.1, 505.0)">l</text><text xml:space="preserve" font-family="CourierNewPSMT" font-size="25.0" fill="#FEFFFF" transform="matrix(1.00, 0.00, -0.00, -1.00, 783.1, 505.0)">B</text><text xml:space="preserve" font-family="CourierNewPSMT" font-size="25.0" fill="#FEFFFF" transform="matrix(1.00, 0.00, -0.00, -1.00, 798.1, 505.0)">a</text><text xml:space="preserve" font-family="CourierNewPSMT" font-size="25.0" fill="#FEFFFF" transform="matrix(1.00, 0.00, -0.00, -1.00, 813.1, 505.0)">r</text><text xml:space="preserve" font-family="CourierNewPSMT" font-size="25.0" fill="#FEFFFF" transform="matrix(1.00, 0.00, -0.00, -1.00, 828.1, 505.0)">D</text><text xml:space="preserve" font-family="CourierNewPSMT" font-size="25.0" fill="#FEFFFF" transform="matrix(1.00, 0.00, -0.00, -1.00, 843.1, 505.0)">e</text><text xml:space="preserve" font-family="CourierNewPSMT" font-size="25.0" fill="#FEFFFF" transform="matrix(1.00, 0.00, -0.00, -1.00, 858.1, 505.0)">c</text><text xml:space="preserve" font-family="CourierNewPSMT" font-size="25.0" fill="#FEFFFF" transform="matrix(1.00, 0.00, -0.00, -1.00, 873.1, 505.0)">o</text><text xml:space="preserve" font-family="CourierNewPSMT" font-size="25.0" fill="#FEFFFF" transform="matrix(1.00, 0.00, -0.00, -1.00, 888.1, 505.0)">r</text><text xml:space="preserve" font-family="CourierNewPSMT" font-size="25.0" fill="#FEFFFF" transform="matrix(1.00, 0.00, -0.00, -1.00, 903.1, 505.0)">a</text><text xml:space="preserve" font-family="CourierNewPSMT" font-size="25.0" fill="#FEFFFF" transform="matrix(1.00, 0.00, -0.00, -1.00, 918.2, 505.0)">t</text><text xml:space="preserve" font-family="CourierNewPSMT" font-size="25.0" fill="#FEFFFF" transform="matrix(1.00, 0.00, -0.00, -1.00, 933.2, 505.0)">o</text><text xml:space="preserve" font-family="CourierNewPSMT" font-size="25.0" fill="#FEFFFF" transform="matrix(1.00, 0.00, -0.00, -1.00, 948.2, 505.0)">r</text><text xml:space="preserve" font-family="CourierNewPSMT" font-size="25.0" fill="#FEFFFF" transform="matrix(1.00, 0.00, -0.00, -1.00, 963.2, 505.0)">(</text><text xml:space="preserve" font-family="CourierNewPSMT" font-size="25.0" fill="#FEFFFF" transform="matrix(1.00, 0.00, -0.00, -1.00, 978.2, 505.0)"> </text><text xml:space="preserve" font-family="CourierNewPSMT" font-size="25.0" fill="#FEFFFF" transform="matrix(1.00, 0.00, -0.00, -1.00, 453.0, 476.0)"> </text><text xml:space="preserve" font-family="CourierNewPSMT" font-size="25.0" fill="#FEFFFF" transform="matrix(1.00, 0.00, -0.00, -1.00, 468.0, 476.0)"> </text><text xml:space="preserve" font-family="CourierNewPSMT" font-size="25.0" fill="#FEFFFF" transform="matrix(1.00, 0.00, -0.00, -1.00, 483.0, 476.0)"> </text><text xml:space="preserve" font-family="CourierNewPSMT" font-size="25.0" fill="#FEFFFF" transform="matrix(1.00, 0.00, -0.00, -1.00, 498.0, 476.0)"> </text><text xml:space="preserve" font-family="CourierNewPSMT" font-size="25.0" fill="#FEFFFF" transform="matrix(1.00, 0.00, -0.00, -1.00, 513.0, 476.0)"> </text><text xml:space="preserve" font-family="CourierNewPSMT" font-size="25.0" fill="#FEFFFF" transform="matrix(1.00, 0.00, -0.00, -1.00, 528.0, 476.0)"> </text><text xml:space="preserve" font-family="CourierNewPSMT" font-size="25.0" fill="#FEFFFF" transform="matrix(1.00, 0.00, -0.00, -1.00, 543.0, 476.0)">n</text><text xml:space="preserve" font-family="CourierNewPSMT" font-size="25.0" fill="#FEFFFF" transform="matrix(1.00, 0.00, -0.00, -1.00, 558.0, 476.0)">e</text><text xml:space="preserve" font-family="CourierNewPSMT" font-size="25.0" fill="#FEFFFF" transform="matrix(1.00, 0.00, -0.00, -1.00, 573.0, 476.0)">w</text><text xml:space="preserve" font-family="CourierNewPSMT" font-size="25.0" fill="#FEFFFF" transform="matrix(1.00, 0.00, -0.00, -1.00, 588.0, 476.0)"> </text><text xml:space="preserve" font-family="CourierNewPSMT" font-size="25.0" fill="#FEFFFF" transform="matrix(1.00, 0.00, -0.00, -1.00, 603.0, 476.0)">W</text><text xml:space="preserve" font-family="CourierNewPSMT" font-size="25.0" fill="#FEFFFF" transform="matrix(1.00, 0.00, -0.00, -1.00, 618.1, 476.0)">i</text><text xml:space="preserve" font-family="CourierNewPSMT" font-size="25.0" fill="#FEFFFF" transform="matrix(1.00, 0.00, -0.00, -1.00, 633.1, 476.0)">n</text><text xml:space="preserve" font-family="CourierNewPSMT" font-size="25.0" fill="#FEFFFF" transform="matrix(1.00, 0.00, -0.00, -1.00, 648.1, 476.0)">d</text><text xml:space="preserve" font-family="CourierNewPSMT" font-size="25.0" fill="#FEFFFF" transform="matrix(1.00, 0.00, -0.00, -1.00, 663.1, 476.0)">o</text><text xml:space="preserve" font-family="CourierNewPSMT" font-size="25.0" fill="#FEFFFF" transform="matrix(1.00, 0.00, -0.00, -1.00, 678.1, 476.0)">w</text><text xml:space="preserve" font-family="CourierNewPSMT" font-size="25.0" fill="#FEFFFF" transform="matrix(1.00, 0.00, -0.00, -1.00, 693.1, 476.0)">(</text><text xml:space="preserve" font-family="CourierNewPSMT" font-size="25.0" fill="#FEFFFF" transform="matrix(1.00, 0.00, -0.00, -1.00, 708.1, 476.0)"> </text><text xml:space="preserve" font-family="CourierNewPSMT" font-size="25.0" fill="#FEFFFF" transform="matrix(1.00, 0.00, -0.00, -1.00, 723.1, 476.0)">8</text><text xml:space="preserve" font-family="CourierNewPSMT" font-size="25.0" fill="#FEFFFF" transform="matrix(1.00, 0.00, -0.00, -1.00, 738.1, 476.0)">0</text><text xml:space="preserve" font-family="CourierNewPSMT" font-size="25.0" fill="#FEFFFF" transform="matrix(1.00, 0.00, -0.00, -1.00, 753.1, 476.0)">,</text><text xml:space="preserve" font-family="CourierNewPSMT" font-size="25.0" fill="#FEFFFF" transform="matrix(1.00, 0.00, -0.00, -1.00, 768.1, 476.0)"> </text><text xml:space="preserve" font-family="CourierNewPSMT" font-size="25.0" fill="#FEFFFF" transform="matrix(1.00, 0.00, -0.00, -1.00, 783.1, 476.0)">2</text><text xml:space="preserve" font-family="CourierNewPSMT" font-size="25.0" fill="#FEFFFF" transform="matrix(1.00, 0.00, -0.00, -1.00, 798.1, 476.0)">4</text><text xml:space="preserve" font-family="CourierNewPSMT" font-size="25.0" fill="#FEFFFF" transform="matrix(1.00, 0.00, -0.00, -1.00, 813.1, 476.0)"> </text><text xml:space="preserve" font-family="CourierNewPSMT" font-size="25.0" fill="#FEFFFF" transform="matrix(1.00, 0.00, -0.00, -1.00, 828.1, 476.0)">)</text><text xml:space="preserve" font-family="CourierNewPSMT" font-size="25.0" fill="#FEFFFF" transform="matrix(1.00, 0.00, -0.00, -1.00, 843.1, 476.0)">)</text><text xml:space="preserve" font-family="CourierNewPSMT" font-size="25.0" fill="#FEFFFF" transform="matrix(1.00, 0.00, -0.00, -1.00, 858.1, 476.0)">)</text><text xml:space="preserve" font-family="CourierNewPSMT" font-size="25.0" fill="#FEFFFF" transform="matrix(1.00, 0.00, -0.00, -1.00, 873.1, 476.0)">)</text><text xml:space="preserve" font-family="CourierNewPSMT" font-size="25.0" fill="#FEFFFF" transform="matrix(1.00, 0.00, -0.00, -1.00, 888.1, 476.0)">;</text><text xml:space="preserve" font-family="CourierNewPSMT" font-size="25.0" fill="#FEFFFF" transform="matrix(1.00, 0.00, -0.00, -1.00, 903.1, 476.0)"> </text><text xml:space="preserve" font-family="CourierNewPSMT" font-size="25.0" fill="#FEFFFF" transform="matrix(1.00, 0.00, -0.00, -1.00, 453.0, 418.0)">$</text><text xml:space="preserve" font-family="CourierNewPSMT" font-size="25.0" fill="#FEFFFF" transform="matrix(1.00, 0.00, -0.00, -1.00, 468.0, 418.0)">w</text><text xml:space="preserve" font-family="CourierNewPSMT" font-size="25.0" fill="#FEFFFF" transform="matrix(1.00, 0.00, -0.00, -1.00, 483.0, 418.0)">i</text><text xml:space="preserve" font-family="CourierNewPSMT" font-size="25.0" fill="#FEFFFF" transform="matrix(1.00, 0.00, -0.00, -1.00, 498.0, 418.0)">n</text><text xml:space="preserve" font-family="CourierNewPSMT" font-size="25.0" fill="#FEFFFF" transform="matrix(1.00, 0.00, -0.00, -1.00, 513.0, 418.0)">d</text><text xml:space="preserve" font-family="CourierNewPSMT" font-size="25.0" fill="#FEFFFF" transform="matrix(1.00, 0.00, -0.00, -1.00, 528.0, 418.0)">o</text><text xml:space="preserve" font-family="CourierNewPSMT" font-size="25.0" fill="#FEFFFF" transform="matrix(1.00, 0.00, -0.00, -1.00, 543.0, 418.0)">w</text><text xml:space="preserve" font-family="CourierNewPSMT" font-size="25.0" fill="#FEFFFF" transform="matrix(1.00, 0.00, -0.00, -1.00, 558.0, 418.0)">-</text><text xml:space="preserve" font-family="CourierNewPSMT" font-size="25.0" fill="#FEFFFF" transform="matrix(1.00, 0.00, -0.00, -1.00, 573.0, 418.0)">&gt;</text><text xml:space="preserve" font-family="CourierNewPSMT" font-size="25.0" fill="#FEFFFF" transform="matrix(1.00, 0.00, -0.00, -1.00, 588.0, 418.0)">d</text><text xml:space="preserve" font-family="CourierNewPSMT" font-size="25.0" fill="#FEFFFF" transform="matrix(1.00, 0.00, -0.00, -1.00, 603.0, 418.0)">r</text><text xml:space="preserve" font-family="CourierNewPSMT" font-size="25.0" fill="#FEFFFF" transform="matrix(1.00, 0.00, -0.00, -1.00, 618.0, 418.0)">a</text><text xml:space="preserve" font-family="CourierNewPSMT" font-size="25.0" fill="#FEFFFF" transform="matrix(1.00, 0.00, -0.00, -1.00, 633.0, 418.0)">w</text><text xml:space="preserve" font-family="CourierNewPSMT" font-size="25.0" fill="#FEFFFF" transform="matrix(1.00, 0.00, -0.00, -1.00, 648.0, 418.0)">(</text><text xml:space="preserve" font-family="CourierNewPSMT" font-size="25.0" fill="#FEFFFF" transform="matrix(1.00, 0.00, -0.00, -1.00, 663.1, 418.0)">)</text><text xml:space="preserve" font-family="CourierNewPSMT" font-size="25.0" fill="#FEFFFF" transform="matrix(1.00, 0.00, -0.00, -1.00, 678.1, 418.0)">;</text><text xml:space="preserve" font-family="CourierNewPSMT" font-size="25.0" fill="#FEFFFF" transform="matrix(1.00, 0.00, -0.00, -1.00, 693.1, 418.0)"> </text><g><clipPath id="clip-3"><path d="M 25.0 526.0 L 831.0 526.0 L 831.0 40.0 L 25.0 40.0 Z M 25.0 525.5 "></path></clipPath><g clip-path="url(#clip-3)"><image xlink:href="../../54E7D121-4D4E-47D5-8B78-22714EB14BD0/assets/1DFB6803DA5CB93CC2DA7D778234D7BA.png" width="807.00" height="486.00" transform="matrix(1.00, 0.00, -0.00, -1.00, 25.0, 525.0)"></image></g></g><text xml:space="preserve" font-family="Helvetica-Light" font-size="60.0" fill="#FEFFFF" transform="matrix(1.00, 0.00, -0.00, -1.00, 181.0, 671.0)">O</text><text xml:space="preserve" font-family="Helvetica-Light" font-size="60.0" fill="#FEFFFF" transform="matrix(1.00, 0.00, -0.00, -1.00, 227.7, 671.0)">r</text><text xml:space="preserve" font-family="Helvetica-Light" font-size="60.0" fill="#FEFFFF" transform="matrix(1.00, 0.00, -0.00, -1.00, 247.7, 671.0)"> </text><text xml:space="preserve" font-family="Helvetica-Light" font-size="60.0" fill="#FEFFFF" transform="matrix(1.00, 0.00, -0.00, -1.00, 264.3, 671.0)">t</text><text xml:space="preserve" font-family="Helvetica-Light" font-size="60.0" fill="#FEFFFF" transform="matrix(1.00, 0.00, -0.00, -1.00, 281.0, 671.0)">h</text><text xml:space="preserve" font-family="Helvetica-Light" font-size="60.0" fill="#FEFFFF" transform="matrix(1.00, 0.00, -0.00, -1.00, 314.4, 671.0)">i</text><text xml:space="preserve" font-family="Helvetica-Light" font-size="60.0" fill="#FEFFFF" transform="matrix(1.00, 0.00, -0.00, -1.00, 327.7, 671.0)">s</text><text xml:space="preserve" font-family="Helvetica-Light" font-size="60.0" fill="#FEFFFF" transform="matrix(1.00, 0.00, -0.00, -1.00, 357.7, 671.0)"> </text><text xml:space="preserve" font-family="Helvetica-Light" font-size="60.0" fill="#FEFFFF" transform="matrix(1.00, 0.00, -0.00, -1.00, 374.4, 671.0)">c</text><text xml:space="preserve" font-family="Helvetica-Light" font-size="60.0" fill="#FEFFFF" transform="matrix(1.00, 0.00, -0.00, -1.00, 407.7, 671.0)">l</text><text xml:space="preserve" font-family="Helvetica-Light" font-size="60.0" fill="#FEFFFF" transform="matrix(1.00, 0.00, -0.00, -1.00, 421.1, 671.0)">e</text><text xml:space="preserve" font-family="Helvetica-Light" font-size="60.0" fill="#FEFFFF" transform="matrix(1.00, 0.00, -0.00, -1.00, 454.4, 671.0)">a</text><text xml:space="preserve" font-family="Helvetica-Light" font-size="60.0" fill="#FEFFFF" transform="matrix(1.00, 0.00, -0.00, -1.00, 487.8, 671.0)">n</text><text xml:space="preserve" font-family="Helvetica-Light" font-size="60.0" fill="#FEFFFF" transform="matrix(1.00, 0.00, -0.00, -1.00, 521.1, 671.0)">e</text><text xml:space="preserve" font-family="Helvetica-Light" font-size="60.0" fill="#FEFFFF" transform="matrix(1.00, 0.00, -0.00, -1.00, 554.5, 671.0)">r</text><text xml:space="preserve" font-family="Helvetica-Light" font-size="60.0" fill="#FEFFFF" transform="matrix(1.00, 0.00, -0.00, -1.00, 574.5, 671.0)"> </text><text xml:space="preserve" font-family="Helvetica-Light" font-size="60.0" fill="#FEFFFF" transform="matrix(1.00, 0.00, -0.00, -1.00, 591.2, 671.0)">p</text><text xml:space="preserve" font-family="Helvetica-Light" font-size="60.0" fill="#FEFFFF" transform="matrix(1.00, 0.00, -0.00, -1.00, 627.8, 671.0)">a</text><text xml:space="preserve" font-family="Helvetica-Light" font-size="60.0" fill="#FEFFFF" transform="matrix(1.00, 0.00, -0.00, -1.00, 661.2, 671.0)">t</text><text xml:space="preserve" font-family="Helvetica-Light" font-size="60.0" fill="#FEFFFF" transform="matrix(1.00, 0.00, -0.00, -1.00, 677.9, 671.0)">t</text><text xml:space="preserve" font-family="Helvetica-Light" font-size="60.0" fill="#FEFFFF" transform="matrix(1.00, 0.00, -0.00, -1.00, 694.5, 671.0)">e</text><text xml:space="preserve" font-family="Helvetica-Light" font-size="60.0" fill="#FEFFFF" transform="matrix(1.00, 0.00, -0.00, -1.00, 727.9, 671.0)">r</text><text xml:space="preserve" font-family="Helvetica-Light" font-size="60.0" fill="#FEFFFF" transform="matrix(1.00, 0.00, -0.00, -1.00, 749.0, 671.0)">n</text><text xml:space="preserve" font-family="Helvetica-Light" font-size="60.0" fill="#FEFFFF" transform="matrix(1.00, 0.00, -0.00, -1.00, 782.3, 671.0)">…</text></g></svg>