<?xml version="1.0" encoding="UTF-8" standalone="no"?><svg xmlns="http://www.w3.org/2000/svg" xmlns:xlink="http://www.w3.org/1999/xlink" clip-rule="evenodd" stroke-miterlimit="4.00" viewBox="0 0 1024 768"><desc>SVG generated by Keynote</desc><defs></defs><g transform="matrix(1.00, 0.00, -0.00, -1.00, 0.0, 768.0)"><path d="M 0.0 768.0 L 1024.0 768.0 L 1024.0 0.0 L 0.0 0.0 Z M 0.0 768.0 " fill="#000000"></path><g><clipPath id="clip-4"><path d="M -38.0 698.0 L 1062.0 698.0 L 1062.0 30.0 L -38.0 30.0 Z M -38.0 697.6 "></path></clipPath><g clip-path="url(#clip-4)"><image xlink:href="A284C3097B38ED235EF3876C6E1ABE1F.png" width="847.00" height="540.00" transform="matrix(1.30, 0.00, -0.00, -1.30, -38.0, 715.0)"></image></g></g><text xml:space="preserve" font-family="Helvetica-Light" font-size="32.0" fill="#FEFFFF" transform="matrix(1.00, 0.00, -0.00, -1.00, 281.0, 728.0)">R</text><text xml:space="preserve" font-family="Helvetica-Light" font-size="32.0" fill="#FEFFFF" transform="matrix(1.00, 0.00, -0.00, -1.00, 302.3, 728.0)">e</text><text xml:space="preserve" font-family="Helvetica-Light" font-size="32.0" fill="#FEFFFF" transform="matrix(1.00, 0.00, -0.00, -1.00, 320.1, 728.0)">t</text><text xml:space="preserve" font-family="Helvetica-Light" font-size="32.0" fill="#FEFFFF" transform="matrix(1.00, 0.00, -0.00, -1.00, 329.0, 728.0)">r</text><text xml:space="preserve" font-family="Helvetica-Light" font-size="32.0" fill="#FEFFFF" transform="matrix(1.00, 0.00, -0.00, -1.00, 340.3, 728.0)">y</text><text xml:space="preserve" font-family="Helvetica-Light" font-size="32.0" fill="#FEFFFF" transform="matrix(1.00, 0.00, -0.00, -1.00, 356.3, 728.0)"> </text><text xml:space="preserve" font-family="Helvetica-Light" font-size="32.0" fill="#FEFFFF" transform="matrix(1.00, 0.00, -0.00, -1.00, 365.2, 728.0)">d</text><text xml:space="preserve" font-family="Helvetica-Light" font-size="32.0" fill="#FEFFFF" transform="matrix(1.00, 0.00, -0.00, -1.00, 384.7, 728.0)">e</text><text xml:space="preserve" font-family="Helvetica-Light" font-size="32.0" fill="#FEFFFF" transform="matrix(1.00, 0.00, -0.00, -1.00, 402.5, 728.0)">c</text><text xml:space="preserve" font-family="Helvetica-Light" font-size="32.0" fill="#FEFFFF" transform="matrix(1.00, 0.00, -0.00, -1.00, 420.3, 728.0)">o</text><text xml:space="preserve" font-family="Helvetica-Light" font-size="32.0" fill="#FEFFFF" transform="matrix(1.00, 0.00, -0.00, -1.00, 438.1, 728.0)">r</text><text xml:space="preserve" font-family="Helvetica-Light" font-size="32.0" fill="#FEFFFF" transform="matrix(1.00, 0.00, -0.00, -1.00, 448.7, 728.0)">a</text><text xml:space="preserve" font-family="Helvetica-Light" font-size="32.0" fill="#FEFFFF" transform="matrix(1.00, 0.00, -0.00, -1.00, 466.5, 728.0)">t</text><text xml:space="preserve" font-family="Helvetica-Light" font-size="32.0" fill="#FEFFFF" transform="matrix(1.00, 0.00, -0.00, -1.00, 475.4, 728.0)">o</text><text xml:space="preserve" font-family="Helvetica-Light" font-size="32.0" fill="#FEFFFF" transform="matrix(1.00, 0.00, -0.00, -1.00, 493.2, 728.0)">r</text><text xml:space="preserve" font-family="Helvetica-Light" font-size="32.0" fill="#FEFFFF" transform="matrix(1.00, 0.00, -0.00, -1.00, 503.9, 728.0)"> </text><text xml:space="preserve" font-family="Helvetica-Light" font-size="32.0" fill="#FEFFFF" transform="matrix(1.00, 0.00, -0.00, -1.00, 512.8, 728.0)">e</text><text xml:space="preserve" font-family="Helvetica-Light" font-size="32.0" fill="#FEFFFF" transform="matrix(1.00, 0.00, -0.00, -1.00, 530.6, 728.0)">x</text><text xml:space="preserve" font-family="Helvetica-Light" font-size="32.0" fill="#FEFFFF" transform="matrix(1.00, 0.00, -0.00, -1.00, 546.6, 728.0)">a</text><text xml:space="preserve" font-family="Helvetica-Light" font-size="32.0" fill="#FEFFFF" transform="matrix(1.00, 0.00, -0.00, -1.00, 564.4, 728.0)">m</text><text xml:space="preserve" font-family="Helvetica-Light" font-size="32.0" fill="#FEFFFF" transform="matrix(1.00, 0.00, -0.00, -1.00, 591.0, 728.0)">p</text><text xml:space="preserve" font-family="Helvetica-Light" font-size="32.0" fill="#FEFFFF" transform="matrix(1.00, 0.00, -0.00, -1.00, 610.6, 728.0)">l</text><text xml:space="preserve" font-family="Helvetica-Light" font-size="32.0" fill="#FEFFFF" transform="matrix(1.00, 0.00, -0.00, -1.00, 617.7, 728.0)">e</text><text xml:space="preserve" font-family="Helvetica-Light" font-size="32.0" fill="#FEFFFF" transform="matrix(1.00, 0.00, -0.00, -1.00, 635.5, 728.0)"> </text><text xml:space="preserve" font-family="Helvetica-Light" font-size="32.0" fill="#FEFFFF" transform="matrix(1.00, 0.00, -0.00, -1.00, 644.4, 728.0)">i</text><text xml:space="preserve" font-family="Helvetica-Light" font-size="32.0" fill="#FEFFFF" transform="matrix(1.00, 0.00, -0.00, -1.00, 651.5, 728.0)">n</text><text xml:space="preserve" font-family="Helvetica-Light" font-size="32.0" fill="#FEFFFF" transform="matrix(1.00, 0.00, -0.00, -1.00, 669.3, 728.0)"> </text><text xml:space="preserve" font-family="Helvetica-Light" font-size="32.0" fill="#FEFFFF" transform="matrix(1.00, 0.00, -0.00, -1.00, 678.2, 728.0)">r</text><text xml:space="preserve" font-family="Helvetica-Light" font-size="32.0" fill="#FEFFFF" transform="matrix(1.00, 0.00, -0.00, -1.00, 688.8, 728.0)">u</text><text xml:space="preserve" font-family="Helvetica-Light" font-size="32.0" fill="#FEFFFF" transform="matrix(1.00, 0.00, -0.00, -1.00, 706.6, 728.0)">b</text><text xml:space="preserve" font-family="Helvetica-Light" font-size="32.0" fill="#FEFFFF" transform="matrix(1.00, 0.00, -0.00, -1.00, 726.2, 728.0)">y</text></g></svg>